G75*
%MOIN*%
%OFA0B0*%
%FSLAX24Y24*%
%IPPOS*%
%LPD*%
%AMOC8*
5,1,8,0,0,1.08239X$1,22.5*
%
%ADD10C,0.0000*%
%ADD11C,0.0600*%
%ADD12C,0.0520*%
%ADD13OC8,0.0660*%
%ADD14C,0.0825*%
%ADD15C,0.1000*%
%ADD16OC8,0.0560*%
%ADD17C,0.0320*%
%ADD18R,0.0356X0.0356*%
%ADD19C,0.0760*%
%ADD20C,0.1500*%
D10*
X000325Y000425D02*
X000325Y031921D01*
X040876Y031921D01*
X040876Y000425D01*
X000325Y000425D01*
X001109Y001800D02*
X001111Y001848D01*
X001117Y001896D01*
X001127Y001943D01*
X001140Y001989D01*
X001158Y002034D01*
X001178Y002078D01*
X001203Y002120D01*
X001231Y002159D01*
X001261Y002196D01*
X001295Y002230D01*
X001332Y002262D01*
X001370Y002291D01*
X001411Y002316D01*
X001454Y002338D01*
X001499Y002356D01*
X001545Y002370D01*
X001592Y002381D01*
X001640Y002388D01*
X001688Y002391D01*
X001736Y002390D01*
X001784Y002385D01*
X001832Y002376D01*
X001878Y002364D01*
X001923Y002347D01*
X001967Y002327D01*
X002009Y002304D01*
X002049Y002277D01*
X002087Y002247D01*
X002122Y002214D01*
X002154Y002178D01*
X002184Y002140D01*
X002210Y002099D01*
X002232Y002056D01*
X002252Y002012D01*
X002267Y001967D01*
X002279Y001920D01*
X002287Y001872D01*
X002291Y001824D01*
X002291Y001776D01*
X002287Y001728D01*
X002279Y001680D01*
X002267Y001633D01*
X002252Y001588D01*
X002232Y001544D01*
X002210Y001501D01*
X002184Y001460D01*
X002154Y001422D01*
X002122Y001386D01*
X002087Y001353D01*
X002049Y001323D01*
X002009Y001296D01*
X001967Y001273D01*
X001923Y001253D01*
X001878Y001236D01*
X001832Y001224D01*
X001784Y001215D01*
X001736Y001210D01*
X001688Y001209D01*
X001640Y001212D01*
X001592Y001219D01*
X001545Y001230D01*
X001499Y001244D01*
X001454Y001262D01*
X001411Y001284D01*
X001370Y001309D01*
X001332Y001338D01*
X001295Y001370D01*
X001261Y001404D01*
X001231Y001441D01*
X001203Y001480D01*
X001178Y001522D01*
X001158Y001566D01*
X001140Y001611D01*
X001127Y001657D01*
X001117Y001704D01*
X001111Y001752D01*
X001109Y001800D01*
X001109Y030550D02*
X001111Y030598D01*
X001117Y030646D01*
X001127Y030693D01*
X001140Y030739D01*
X001158Y030784D01*
X001178Y030828D01*
X001203Y030870D01*
X001231Y030909D01*
X001261Y030946D01*
X001295Y030980D01*
X001332Y031012D01*
X001370Y031041D01*
X001411Y031066D01*
X001454Y031088D01*
X001499Y031106D01*
X001545Y031120D01*
X001592Y031131D01*
X001640Y031138D01*
X001688Y031141D01*
X001736Y031140D01*
X001784Y031135D01*
X001832Y031126D01*
X001878Y031114D01*
X001923Y031097D01*
X001967Y031077D01*
X002009Y031054D01*
X002049Y031027D01*
X002087Y030997D01*
X002122Y030964D01*
X002154Y030928D01*
X002184Y030890D01*
X002210Y030849D01*
X002232Y030806D01*
X002252Y030762D01*
X002267Y030717D01*
X002279Y030670D01*
X002287Y030622D01*
X002291Y030574D01*
X002291Y030526D01*
X002287Y030478D01*
X002279Y030430D01*
X002267Y030383D01*
X002252Y030338D01*
X002232Y030294D01*
X002210Y030251D01*
X002184Y030210D01*
X002154Y030172D01*
X002122Y030136D01*
X002087Y030103D01*
X002049Y030073D01*
X002009Y030046D01*
X001967Y030023D01*
X001923Y030003D01*
X001878Y029986D01*
X001832Y029974D01*
X001784Y029965D01*
X001736Y029960D01*
X001688Y029959D01*
X001640Y029962D01*
X001592Y029969D01*
X001545Y029980D01*
X001499Y029994D01*
X001454Y030012D01*
X001411Y030034D01*
X001370Y030059D01*
X001332Y030088D01*
X001295Y030120D01*
X001261Y030154D01*
X001231Y030191D01*
X001203Y030230D01*
X001178Y030272D01*
X001158Y030316D01*
X001140Y030361D01*
X001127Y030407D01*
X001117Y030454D01*
X001111Y030502D01*
X001109Y030550D01*
X038859Y030550D02*
X038861Y030598D01*
X038867Y030646D01*
X038877Y030693D01*
X038890Y030739D01*
X038908Y030784D01*
X038928Y030828D01*
X038953Y030870D01*
X038981Y030909D01*
X039011Y030946D01*
X039045Y030980D01*
X039082Y031012D01*
X039120Y031041D01*
X039161Y031066D01*
X039204Y031088D01*
X039249Y031106D01*
X039295Y031120D01*
X039342Y031131D01*
X039390Y031138D01*
X039438Y031141D01*
X039486Y031140D01*
X039534Y031135D01*
X039582Y031126D01*
X039628Y031114D01*
X039673Y031097D01*
X039717Y031077D01*
X039759Y031054D01*
X039799Y031027D01*
X039837Y030997D01*
X039872Y030964D01*
X039904Y030928D01*
X039934Y030890D01*
X039960Y030849D01*
X039982Y030806D01*
X040002Y030762D01*
X040017Y030717D01*
X040029Y030670D01*
X040037Y030622D01*
X040041Y030574D01*
X040041Y030526D01*
X040037Y030478D01*
X040029Y030430D01*
X040017Y030383D01*
X040002Y030338D01*
X039982Y030294D01*
X039960Y030251D01*
X039934Y030210D01*
X039904Y030172D01*
X039872Y030136D01*
X039837Y030103D01*
X039799Y030073D01*
X039759Y030046D01*
X039717Y030023D01*
X039673Y030003D01*
X039628Y029986D01*
X039582Y029974D01*
X039534Y029965D01*
X039486Y029960D01*
X039438Y029959D01*
X039390Y029962D01*
X039342Y029969D01*
X039295Y029980D01*
X039249Y029994D01*
X039204Y030012D01*
X039161Y030034D01*
X039120Y030059D01*
X039082Y030088D01*
X039045Y030120D01*
X039011Y030154D01*
X038981Y030191D01*
X038953Y030230D01*
X038928Y030272D01*
X038908Y030316D01*
X038890Y030361D01*
X038877Y030407D01*
X038867Y030454D01*
X038861Y030502D01*
X038859Y030550D01*
X039234Y001800D02*
X039236Y001848D01*
X039242Y001896D01*
X039252Y001943D01*
X039265Y001989D01*
X039283Y002034D01*
X039303Y002078D01*
X039328Y002120D01*
X039356Y002159D01*
X039386Y002196D01*
X039420Y002230D01*
X039457Y002262D01*
X039495Y002291D01*
X039536Y002316D01*
X039579Y002338D01*
X039624Y002356D01*
X039670Y002370D01*
X039717Y002381D01*
X039765Y002388D01*
X039813Y002391D01*
X039861Y002390D01*
X039909Y002385D01*
X039957Y002376D01*
X040003Y002364D01*
X040048Y002347D01*
X040092Y002327D01*
X040134Y002304D01*
X040174Y002277D01*
X040212Y002247D01*
X040247Y002214D01*
X040279Y002178D01*
X040309Y002140D01*
X040335Y002099D01*
X040357Y002056D01*
X040377Y002012D01*
X040392Y001967D01*
X040404Y001920D01*
X040412Y001872D01*
X040416Y001824D01*
X040416Y001776D01*
X040412Y001728D01*
X040404Y001680D01*
X040392Y001633D01*
X040377Y001588D01*
X040357Y001544D01*
X040335Y001501D01*
X040309Y001460D01*
X040279Y001422D01*
X040247Y001386D01*
X040212Y001353D01*
X040174Y001323D01*
X040134Y001296D01*
X040092Y001273D01*
X040048Y001253D01*
X040003Y001236D01*
X039957Y001224D01*
X039909Y001215D01*
X039861Y001210D01*
X039813Y001209D01*
X039765Y001212D01*
X039717Y001219D01*
X039670Y001230D01*
X039624Y001244D01*
X039579Y001262D01*
X039536Y001284D01*
X039495Y001309D01*
X039457Y001338D01*
X039420Y001370D01*
X039386Y001404D01*
X039356Y001441D01*
X039328Y001480D01*
X039303Y001522D01*
X039283Y001566D01*
X039265Y001611D01*
X039252Y001657D01*
X039242Y001704D01*
X039236Y001752D01*
X039234Y001800D01*
D11*
X038575Y008125D02*
X038575Y008725D01*
X037575Y008725D02*
X037575Y008125D01*
X036575Y008125D02*
X036575Y008725D01*
X034075Y008725D02*
X034075Y008125D01*
X033075Y008125D02*
X033075Y008725D01*
X032075Y008725D02*
X032075Y008125D01*
X029575Y008125D02*
X029575Y008725D01*
X028575Y008725D02*
X028575Y008125D01*
X027575Y008125D02*
X027575Y008725D01*
X025075Y008725D02*
X025075Y008125D01*
X024075Y008125D02*
X024075Y008725D01*
X023075Y008725D02*
X023075Y008125D01*
X020575Y008125D02*
X020575Y008725D01*
X019575Y008725D02*
X019575Y008125D01*
X018575Y008125D02*
X018575Y008725D01*
X016075Y008725D02*
X016075Y008125D01*
X015075Y008125D02*
X015075Y008725D01*
X014075Y008725D02*
X014075Y008125D01*
X011575Y008125D02*
X011575Y008725D01*
X010575Y008725D02*
X010575Y008125D01*
X009575Y008125D02*
X009575Y008725D01*
X007075Y008725D02*
X007075Y008125D01*
X006075Y008125D02*
X006075Y008725D01*
X005075Y008725D02*
X005075Y008125D01*
X026775Y027225D02*
X027375Y027225D01*
X027375Y028225D02*
X026775Y028225D01*
X026775Y029225D02*
X027375Y029225D01*
X036525Y027725D02*
X037125Y027725D01*
X037125Y026725D02*
X036525Y026725D01*
X036525Y025725D02*
X037125Y025725D01*
X037125Y024725D02*
X036525Y024725D01*
X036525Y023725D02*
X037125Y023725D01*
X038945Y023734D02*
X039545Y023734D01*
X039545Y024734D02*
X038945Y024734D01*
X038945Y025734D02*
X039545Y025734D01*
X039545Y026734D02*
X038945Y026734D01*
X038945Y027734D02*
X039545Y027734D01*
D12*
X032925Y025285D02*
X032925Y024765D01*
X031925Y024765D02*
X031925Y025285D01*
X030925Y025285D02*
X030925Y024765D01*
X029925Y024765D02*
X029925Y025285D01*
X028925Y025285D02*
X028925Y024765D01*
X027925Y024765D02*
X027925Y025285D01*
X026925Y025285D02*
X026925Y024765D01*
X025925Y024765D02*
X025925Y025285D01*
X025575Y026255D02*
X025575Y026775D01*
X024575Y026775D02*
X024575Y026255D01*
X023575Y026255D02*
X023575Y026775D01*
X023575Y029775D02*
X023575Y030295D01*
X024575Y030295D02*
X024575Y029775D01*
X025575Y029775D02*
X025575Y030295D01*
X025925Y022285D02*
X025925Y021765D01*
X026925Y021765D02*
X026925Y022285D01*
X027925Y022285D02*
X027925Y021765D01*
X028925Y021765D02*
X028925Y022285D01*
X029925Y022285D02*
X029925Y021765D01*
X030925Y021765D02*
X030925Y022285D01*
X031925Y022285D02*
X031925Y021765D01*
X032925Y021765D02*
X032925Y022285D01*
X033075Y013820D02*
X033075Y013300D01*
X032075Y013300D02*
X032075Y013820D01*
X031075Y013820D02*
X031075Y013300D01*
X028575Y013300D02*
X028575Y013820D01*
X027575Y013820D02*
X027575Y013300D01*
X026575Y013300D02*
X026575Y013820D01*
X024075Y013820D02*
X024075Y013300D01*
X023075Y013300D02*
X023075Y013820D01*
X022075Y013820D02*
X022075Y013300D01*
X019575Y013300D02*
X019575Y013820D01*
X018575Y013820D02*
X018575Y013300D01*
X017575Y013300D02*
X017575Y013820D01*
X015075Y013820D02*
X015075Y013300D01*
X014075Y013300D02*
X014075Y013820D01*
X013075Y013820D02*
X013075Y013300D01*
X010575Y013300D02*
X010575Y013820D01*
X009575Y013820D02*
X009575Y013300D01*
X008575Y013300D02*
X008575Y013820D01*
X006075Y013820D02*
X006075Y013300D01*
X005075Y013300D02*
X005075Y013820D01*
X004075Y013820D02*
X004075Y013300D01*
X004075Y010300D02*
X004075Y009780D01*
X005075Y009780D02*
X005075Y010300D01*
X006075Y010300D02*
X006075Y009780D01*
X008575Y009780D02*
X008575Y010300D01*
X009575Y010300D02*
X009575Y009780D01*
X010575Y009780D02*
X010575Y010300D01*
X013075Y010300D02*
X013075Y009780D01*
X014075Y009780D02*
X014075Y010300D01*
X015075Y010300D02*
X015075Y009780D01*
X017575Y009780D02*
X017575Y010300D01*
X018575Y010300D02*
X018575Y009780D01*
X019575Y009780D02*
X019575Y010300D01*
X022075Y010300D02*
X022075Y009780D01*
X023075Y009780D02*
X023075Y010300D01*
X024075Y010300D02*
X024075Y009780D01*
X026575Y009780D02*
X026575Y010300D01*
X027575Y010300D02*
X027575Y009780D01*
X028575Y009780D02*
X028575Y010300D01*
X031075Y010300D02*
X031075Y009780D01*
X032075Y009780D02*
X032075Y010300D01*
X033075Y010300D02*
X033075Y009780D01*
X035575Y009780D02*
X035575Y010300D01*
X036575Y010300D02*
X036575Y009780D01*
X037575Y009780D02*
X037575Y010300D01*
X037575Y013300D02*
X037575Y013820D01*
X036575Y013820D02*
X036575Y013300D01*
X035575Y013300D02*
X035575Y013820D01*
D13*
X034325Y013800D03*
X035575Y015675D03*
X034575Y015925D03*
X033325Y015925D03*
X032075Y015675D03*
X031075Y015675D03*
X030075Y015925D03*
X028825Y015925D03*
X027575Y015675D03*
X026575Y015675D03*
X025575Y015925D03*
X024325Y015925D03*
X023075Y015675D03*
X022075Y015675D03*
X021075Y015925D03*
X019825Y015925D03*
X018575Y015675D03*
X017575Y015675D03*
X016575Y015925D03*
X015325Y015925D03*
X014075Y015675D03*
X013075Y015675D03*
X012075Y015925D03*
X010825Y015925D03*
X009575Y015675D03*
X008575Y015675D03*
X007575Y015925D03*
X006325Y015925D03*
X005075Y015675D03*
X004075Y015675D03*
X007325Y013800D03*
X011825Y013800D03*
X016325Y013800D03*
X020825Y013800D03*
X025325Y013800D03*
X029825Y013800D03*
X029825Y009800D03*
X025325Y009800D03*
X020825Y009800D03*
X016325Y009800D03*
X011825Y009800D03*
X007325Y009800D03*
X007575Y019925D03*
X006325Y019925D03*
X010825Y019925D03*
X012075Y019925D03*
X015325Y019925D03*
X016575Y019925D03*
X019825Y019925D03*
X021075Y019925D03*
X024325Y019925D03*
X025575Y019925D03*
X028825Y019925D03*
X030075Y019925D03*
X033325Y019925D03*
X034575Y019925D03*
X037825Y019925D03*
X039075Y019925D03*
X039075Y015925D03*
X037825Y015925D03*
X036575Y015675D03*
X038825Y013800D03*
X038825Y009800D03*
X034325Y009800D03*
X026575Y031225D03*
X022575Y031225D03*
D14*
X020325Y028338D02*
X020325Y027513D01*
X017325Y027513D02*
X017325Y028338D01*
X014325Y028338D02*
X014325Y027513D01*
X011325Y027513D02*
X011325Y028338D01*
X008325Y028338D02*
X008325Y027513D01*
X005325Y027513D02*
X005325Y028338D01*
X005450Y004838D02*
X005450Y004013D01*
X007450Y004013D02*
X007450Y004838D01*
X009450Y004838D02*
X009450Y004013D01*
X011450Y004013D02*
X011450Y004838D01*
X013450Y004838D02*
X013450Y004013D01*
X015450Y004013D02*
X015450Y004838D01*
X017450Y004838D02*
X017450Y004013D01*
X019450Y004013D02*
X019450Y004838D01*
X022325Y004838D02*
X022325Y004013D01*
X024325Y004013D02*
X024325Y004838D01*
X026325Y004838D02*
X026325Y004013D01*
X028325Y004013D02*
X028325Y004838D01*
X030325Y004838D02*
X030325Y004013D01*
X032325Y004013D02*
X032325Y004838D01*
X034325Y004838D02*
X034325Y004013D01*
X036325Y004013D02*
X036325Y004838D01*
D15*
X013805Y022475D02*
X013805Y023475D01*
X003945Y023475D02*
X003945Y022475D01*
D16*
X016825Y026025D03*
X018800Y024050D03*
X021825Y026025D03*
X023800Y024050D03*
D17*
X024575Y024825D01*
X024575Y026775D01*
X023575Y026775D02*
X022575Y026775D01*
X021825Y026025D01*
X025325Y028225D02*
X026325Y027225D01*
X027075Y027225D01*
X027075Y028225D02*
X028525Y028225D01*
X028525Y029275D01*
X026575Y031225D01*
X026525Y029775D02*
X025575Y029775D01*
X025325Y029025D02*
X025325Y028225D01*
X025325Y029025D02*
X024575Y029775D01*
X024525Y029825D01*
X024525Y030525D01*
X023825Y031225D01*
X022575Y031225D01*
X026525Y029775D02*
X027075Y029225D01*
X028525Y028225D02*
X029025Y027725D01*
X034625Y027725D01*
X032725Y025825D01*
X026725Y025825D01*
X025925Y025025D01*
X028925Y025025D02*
X028925Y024625D01*
X030225Y023325D01*
X031625Y023325D01*
X032925Y022025D01*
X032925Y021425D01*
X032125Y020625D01*
X032125Y016725D01*
X031075Y015675D01*
X030075Y015925D02*
X028575Y014425D01*
X028575Y013300D01*
X027575Y015675D02*
X027825Y015925D01*
X028825Y015925D01*
X025575Y015925D02*
X024075Y014425D01*
X024075Y013300D01*
X023075Y015675D02*
X023325Y015925D01*
X024325Y015925D01*
X021075Y015925D02*
X019575Y014425D01*
X019575Y013300D01*
X018575Y015675D02*
X018825Y015925D01*
X019825Y015925D01*
X016575Y015925D02*
X015075Y014425D01*
X015075Y013300D01*
X014075Y015675D02*
X014325Y015925D01*
X015325Y015925D01*
X012075Y015925D02*
X010575Y014425D01*
X010575Y013300D01*
X009575Y015675D02*
X009825Y015925D01*
X010825Y015925D01*
X007575Y015925D02*
X006075Y014425D01*
X006075Y013300D01*
X005075Y015675D02*
X005325Y015925D01*
X006325Y015925D01*
X031925Y025025D02*
X032725Y025825D01*
X032925Y025025D02*
X034225Y023725D01*
X036825Y023725D01*
X036825Y024725D02*
X039236Y024725D01*
X039245Y024734D01*
X039236Y025725D02*
X036825Y025725D01*
X036825Y026725D02*
X039236Y026725D01*
X039245Y026734D01*
X039634Y026734D01*
X040225Y027325D01*
X040225Y028125D01*
X039725Y028625D01*
X038025Y028625D01*
X037425Y029225D01*
X036825Y027725D02*
X034625Y027725D01*
X036825Y027725D02*
X039236Y027725D01*
X039245Y027734D01*
X039245Y025734D02*
X039236Y025725D01*
X039075Y015925D02*
X037575Y014425D01*
X037575Y013300D01*
X036575Y015675D02*
X036825Y015925D01*
X037825Y015925D01*
X034575Y015925D02*
X033075Y014425D01*
X033075Y013300D01*
X032075Y015675D02*
X032325Y015925D01*
X033325Y015925D01*
D18*
X037425Y029225D03*
D19*
X037575Y010300D02*
X037575Y008425D01*
X037575Y007550D01*
X036575Y006550D01*
X035575Y006550D01*
X034325Y005300D01*
X034325Y004425D01*
X032200Y006550D02*
X031575Y006550D01*
X030325Y005300D01*
X030325Y004425D01*
X032200Y006550D02*
X033075Y007425D01*
X033075Y007800D01*
X033075Y008225D01*
X033075Y008425D01*
X033075Y010300D01*
X028575Y010300D02*
X028575Y008425D01*
X028575Y007925D01*
X026325Y005300D01*
X026325Y004425D01*
X024075Y007425D02*
X024075Y008425D01*
X024075Y010300D01*
X024075Y007425D02*
X022325Y005300D01*
X022325Y004425D01*
X019575Y007800D02*
X019575Y008425D01*
X019575Y010300D01*
X019575Y007800D02*
X017450Y005300D01*
X017450Y004425D01*
X015075Y007300D02*
X015075Y008425D01*
X015075Y010300D01*
X015075Y007300D02*
X013450Y005300D01*
X013450Y004425D01*
X010575Y006425D02*
X010575Y008425D01*
X010575Y010300D01*
X006075Y010300D02*
X006075Y008425D01*
X006075Y005925D01*
X005450Y005300D01*
X005450Y004425D01*
X009450Y004425D02*
X009450Y005300D01*
X010575Y006425D01*
X037575Y007925D02*
X037575Y008425D01*
D20*
X036325Y004425D02*
X036325Y001495D01*
X032325Y001495D01*
X032325Y004425D01*
X032325Y001495D02*
X028325Y001495D01*
X028325Y004425D01*
X028325Y001495D02*
X024325Y001495D01*
X024325Y004425D01*
X024325Y001495D02*
X019450Y001495D01*
X019450Y004425D01*
X019450Y001495D02*
X015450Y001495D01*
X015450Y004425D01*
X015450Y001495D02*
X011450Y001495D01*
X011450Y004425D01*
X011450Y001495D02*
X007450Y001495D01*
X007450Y004425D01*
X007450Y001495D02*
X005407Y001495D01*
X001339Y005563D01*
X001339Y020369D01*
X003945Y022975D01*
X005325Y027925D02*
X005325Y030025D01*
X011325Y030025D01*
X017325Y030025D01*
X017325Y027925D01*
X018800Y024050D02*
X017725Y022975D01*
X014025Y022975D01*
X011325Y025675D01*
X011325Y027925D01*
X011325Y030025D01*
X013805Y022975D02*
X014025Y022975D01*
M02*
