%
M48
M72
T01C0.0236
T02C0.0320
T03C0.0360
T04C0.0400
T05C0.0520
T06C0.0550
T07C0.1181
%
T01
X37425Y29225
T02
X7325Y9800
X6075Y10300
X5075Y10300
X4075Y10300
X4075Y13300
X5075Y13300
X6075Y13300
X7325Y13800
X8575Y13300
X9575Y13300
X10575Y13300
X11825Y13800
X13075Y13300
X14075Y13300
X15075Y13300
X16325Y13800
X17575Y13300
X18575Y13300
X19575Y13300
X20825Y13800
X22075Y13300
X23075Y13300
X24075Y13300
X25325Y13800
X26575Y13300
X27575Y13300
X28575Y13300
X29825Y13800
X31075Y13300
X32075Y13300
X33075Y13300
X34325Y13800
X35575Y13300
X36575Y13300
X37575Y13300
X38825Y13800
X36575Y15675
X35575Y15675
X34575Y15925
X33325Y15925
X32075Y15675
X31075Y15675
X30075Y15925
X28825Y15925
X27575Y15675
X26575Y15675
X25575Y15925
X24325Y15925
X23075Y15675
X22075Y15675
X21075Y15925
X19825Y15925
X18575Y15675
X17575Y15675
X16575Y15925
X15325Y15925
X14075Y15675
X13075Y15675
X12075Y15925
X10825Y15925
X9575Y15675
X8575Y15675
X7575Y15925
X6325Y15925
X5075Y15675
X4075Y15675
X6325Y19925
X7575Y19925
X10825Y19925
X12075Y19925
X15325Y19925
X16575Y19925
X19825Y19925
X21075Y19925
X24325Y19925
X25575Y19925
X25925Y22025
X26925Y22025
X27925Y22025
X28925Y22025
X29925Y22025
X30925Y22025
X31925Y22025
X32925Y22025
X33325Y19925
X34575Y19925
X37825Y19925
X39075Y19925
X39075Y15925
X37825Y15925
X37575Y10300
X36575Y10300
X35575Y10300
X34325Y9800
X33075Y10300
X32075Y10300
X31075Y10300
X29825Y9800
X28575Y10300
X27575Y10300
X26575Y10300
X25325Y9800
X24075Y10300
X23075Y10300
X22075Y10300
X20825Y9800
X19575Y10300
X18575Y10300
X17575Y10300
X16325Y9800
X15075Y10300
X14075Y10300
X13075Y10300
X11825Y9800
X10575Y10300
X9575Y10300
X8575Y10300
X25925Y25025
X26925Y25025
X27925Y25025
X28925Y25025
X29925Y25025
X30925Y25025
X31925Y25025
X32925Y25025
X30075Y19925
X28825Y19925
X25575Y26775
X24575Y26775
X23575Y26775
X23575Y29775
X24575Y29775
X25575Y29775
X26575Y31225
X22575Y31225
X38825Y9800
T03
X16825Y26025
X18800Y24050
X21825Y26025
X23800Y24050
T04
X5075Y8425
X6075Y8425
X7075Y8425
X9575Y8425
X10575Y8425
X11575Y8425
X14075Y8425
X15075Y8425
X16075Y8425
X18575Y8425
X19575Y8425
X20575Y8425
X23075Y8425
X24075Y8425
X25075Y8425
X27575Y8425
X28575Y8425
X29575Y8425
X32075Y8425
X33075Y8425
X34075Y8425
X36575Y8425
X37575Y8425
X38575Y8425
X39245Y23734
X39245Y24734
X39245Y25734
X39245Y26734
X39245Y27734
X36825Y27725
X36825Y26725
X36825Y25725
X36825Y24725
X36825Y23725
X27075Y29225
X27075Y28225
X27075Y27225
T05
X3945Y22975
X13805Y22975
T06
X5450Y4425
X7450Y4425
X9450Y4425
X11450Y4425
X13450Y4425
X15450Y4425
X17450Y4425
X19450Y4425
X22325Y4425
X24325Y4425
X26325Y4425
X28325Y4425
X30325Y4425
X32325Y4425
X34325Y4425
X36325Y4425
X20325Y27925
X17325Y27925
X14325Y27925
X11325Y27925
X8325Y27925
X5325Y27925
T07
X1700Y30550
X1700Y1800
X39825Y1800
X39450Y30550
M30
