G75*
%MOIN*%
%OFA0B0*%
%FSLAX24Y24*%
%IPPOS*%
%LPD*%
%AMOC8*
5,1,8,0,0,1.08239X$1,22.5*
%
%ADD10C,0.0000*%
D10*
X000325Y000425D02*
X000325Y031921D01*
X040876Y031921D01*
X040876Y000425D01*
X000325Y000425D01*
X001109Y001800D02*
X001111Y001848D01*
X001117Y001896D01*
X001127Y001943D01*
X001140Y001989D01*
X001158Y002034D01*
X001178Y002078D01*
X001203Y002120D01*
X001231Y002159D01*
X001261Y002196D01*
X001295Y002230D01*
X001332Y002262D01*
X001370Y002291D01*
X001411Y002316D01*
X001454Y002338D01*
X001499Y002356D01*
X001545Y002370D01*
X001592Y002381D01*
X001640Y002388D01*
X001688Y002391D01*
X001736Y002390D01*
X001784Y002385D01*
X001832Y002376D01*
X001878Y002364D01*
X001923Y002347D01*
X001967Y002327D01*
X002009Y002304D01*
X002049Y002277D01*
X002087Y002247D01*
X002122Y002214D01*
X002154Y002178D01*
X002184Y002140D01*
X002210Y002099D01*
X002232Y002056D01*
X002252Y002012D01*
X002267Y001967D01*
X002279Y001920D01*
X002287Y001872D01*
X002291Y001824D01*
X002291Y001776D01*
X002287Y001728D01*
X002279Y001680D01*
X002267Y001633D01*
X002252Y001588D01*
X002232Y001544D01*
X002210Y001501D01*
X002184Y001460D01*
X002154Y001422D01*
X002122Y001386D01*
X002087Y001353D01*
X002049Y001323D01*
X002009Y001296D01*
X001967Y001273D01*
X001923Y001253D01*
X001878Y001236D01*
X001832Y001224D01*
X001784Y001215D01*
X001736Y001210D01*
X001688Y001209D01*
X001640Y001212D01*
X001592Y001219D01*
X001545Y001230D01*
X001499Y001244D01*
X001454Y001262D01*
X001411Y001284D01*
X001370Y001309D01*
X001332Y001338D01*
X001295Y001370D01*
X001261Y001404D01*
X001231Y001441D01*
X001203Y001480D01*
X001178Y001522D01*
X001158Y001566D01*
X001140Y001611D01*
X001127Y001657D01*
X001117Y001704D01*
X001111Y001752D01*
X001109Y001800D01*
X001109Y030550D02*
X001111Y030598D01*
X001117Y030646D01*
X001127Y030693D01*
X001140Y030739D01*
X001158Y030784D01*
X001178Y030828D01*
X001203Y030870D01*
X001231Y030909D01*
X001261Y030946D01*
X001295Y030980D01*
X001332Y031012D01*
X001370Y031041D01*
X001411Y031066D01*
X001454Y031088D01*
X001499Y031106D01*
X001545Y031120D01*
X001592Y031131D01*
X001640Y031138D01*
X001688Y031141D01*
X001736Y031140D01*
X001784Y031135D01*
X001832Y031126D01*
X001878Y031114D01*
X001923Y031097D01*
X001967Y031077D01*
X002009Y031054D01*
X002049Y031027D01*
X002087Y030997D01*
X002122Y030964D01*
X002154Y030928D01*
X002184Y030890D01*
X002210Y030849D01*
X002232Y030806D01*
X002252Y030762D01*
X002267Y030717D01*
X002279Y030670D01*
X002287Y030622D01*
X002291Y030574D01*
X002291Y030526D01*
X002287Y030478D01*
X002279Y030430D01*
X002267Y030383D01*
X002252Y030338D01*
X002232Y030294D01*
X002210Y030251D01*
X002184Y030210D01*
X002154Y030172D01*
X002122Y030136D01*
X002087Y030103D01*
X002049Y030073D01*
X002009Y030046D01*
X001967Y030023D01*
X001923Y030003D01*
X001878Y029986D01*
X001832Y029974D01*
X001784Y029965D01*
X001736Y029960D01*
X001688Y029959D01*
X001640Y029962D01*
X001592Y029969D01*
X001545Y029980D01*
X001499Y029994D01*
X001454Y030012D01*
X001411Y030034D01*
X001370Y030059D01*
X001332Y030088D01*
X001295Y030120D01*
X001261Y030154D01*
X001231Y030191D01*
X001203Y030230D01*
X001178Y030272D01*
X001158Y030316D01*
X001140Y030361D01*
X001127Y030407D01*
X001117Y030454D01*
X001111Y030502D01*
X001109Y030550D01*
X038859Y030550D02*
X038861Y030598D01*
X038867Y030646D01*
X038877Y030693D01*
X038890Y030739D01*
X038908Y030784D01*
X038928Y030828D01*
X038953Y030870D01*
X038981Y030909D01*
X039011Y030946D01*
X039045Y030980D01*
X039082Y031012D01*
X039120Y031041D01*
X039161Y031066D01*
X039204Y031088D01*
X039249Y031106D01*
X039295Y031120D01*
X039342Y031131D01*
X039390Y031138D01*
X039438Y031141D01*
X039486Y031140D01*
X039534Y031135D01*
X039582Y031126D01*
X039628Y031114D01*
X039673Y031097D01*
X039717Y031077D01*
X039759Y031054D01*
X039799Y031027D01*
X039837Y030997D01*
X039872Y030964D01*
X039904Y030928D01*
X039934Y030890D01*
X039960Y030849D01*
X039982Y030806D01*
X040002Y030762D01*
X040017Y030717D01*
X040029Y030670D01*
X040037Y030622D01*
X040041Y030574D01*
X040041Y030526D01*
X040037Y030478D01*
X040029Y030430D01*
X040017Y030383D01*
X040002Y030338D01*
X039982Y030294D01*
X039960Y030251D01*
X039934Y030210D01*
X039904Y030172D01*
X039872Y030136D01*
X039837Y030103D01*
X039799Y030073D01*
X039759Y030046D01*
X039717Y030023D01*
X039673Y030003D01*
X039628Y029986D01*
X039582Y029974D01*
X039534Y029965D01*
X039486Y029960D01*
X039438Y029959D01*
X039390Y029962D01*
X039342Y029969D01*
X039295Y029980D01*
X039249Y029994D01*
X039204Y030012D01*
X039161Y030034D01*
X039120Y030059D01*
X039082Y030088D01*
X039045Y030120D01*
X039011Y030154D01*
X038981Y030191D01*
X038953Y030230D01*
X038928Y030272D01*
X038908Y030316D01*
X038890Y030361D01*
X038877Y030407D01*
X038867Y030454D01*
X038861Y030502D01*
X038859Y030550D01*
X039234Y001800D02*
X039236Y001848D01*
X039242Y001896D01*
X039252Y001943D01*
X039265Y001989D01*
X039283Y002034D01*
X039303Y002078D01*
X039328Y002120D01*
X039356Y002159D01*
X039386Y002196D01*
X039420Y002230D01*
X039457Y002262D01*
X039495Y002291D01*
X039536Y002316D01*
X039579Y002338D01*
X039624Y002356D01*
X039670Y002370D01*
X039717Y002381D01*
X039765Y002388D01*
X039813Y002391D01*
X039861Y002390D01*
X039909Y002385D01*
X039957Y002376D01*
X040003Y002364D01*
X040048Y002347D01*
X040092Y002327D01*
X040134Y002304D01*
X040174Y002277D01*
X040212Y002247D01*
X040247Y002214D01*
X040279Y002178D01*
X040309Y002140D01*
X040335Y002099D01*
X040357Y002056D01*
X040377Y002012D01*
X040392Y001967D01*
X040404Y001920D01*
X040412Y001872D01*
X040416Y001824D01*
X040416Y001776D01*
X040412Y001728D01*
X040404Y001680D01*
X040392Y001633D01*
X040377Y001588D01*
X040357Y001544D01*
X040335Y001501D01*
X040309Y001460D01*
X040279Y001422D01*
X040247Y001386D01*
X040212Y001353D01*
X040174Y001323D01*
X040134Y001296D01*
X040092Y001273D01*
X040048Y001253D01*
X040003Y001236D01*
X039957Y001224D01*
X039909Y001215D01*
X039861Y001210D01*
X039813Y001209D01*
X039765Y001212D01*
X039717Y001219D01*
X039670Y001230D01*
X039624Y001244D01*
X039579Y001262D01*
X039536Y001284D01*
X039495Y001309D01*
X039457Y001338D01*
X039420Y001370D01*
X039386Y001404D01*
X039356Y001441D01*
X039328Y001480D01*
X039303Y001522D01*
X039283Y001566D01*
X039265Y001611D01*
X039252Y001657D01*
X039242Y001704D01*
X039236Y001752D01*
X039234Y001800D01*
M02*
